<mxfile host="app.diagrams.net" modified="2023-07-08T09:37:39.225Z" agent="Mozilla/5.0 (Macintosh; Intel Mac OS X 10_15_7) AppleWebKit/605.1.15 (KHTML, like Gecko) Version/16.2 Safari/605.1.15" etag="VkI8PcwEXjAM9w3ywghc" version="21.6.1" type="github">
  <diagram name="Page-1" id="K1F0FIsnGHKyOy8hqRCF">
    <mxGraphModel dx="954" dy="1877" grid="1" gridSize="10" guides="1" tooltips="1" connect="1" arrows="1" fold="1" page="1" pageScale="1" pageWidth="827" pageHeight="1169" math="0" shadow="0">
      <root>
        <mxCell id="0" />
        <mxCell id="1" parent="0" />
        <mxCell id="ok1_TOygVz_Hh4LagnOM-1" value="" style="whiteSpace=wrap;html=1;imageWidth=33.4;imageHeight=68.4;resizeWidth=0;" parent="1" vertex="1">
          <mxGeometry x="90" y="-20" width="370" height="684" as="geometry" />
        </mxCell>
      </root>
    </mxGraphModel>
  </diagram>
</mxfile>
